<?xml version="1.0" encoding="utf-8"?>
<svg viewBox="0 20.939 173.4 156.063" xmlns="http://www.w3.org/2000/svg">
  <g transform="matrix(0.346074, 0, 0, 0.346074, 532.4639282, 23.5306263)">
    <g transform="matrix(1.8825598, 0, 0, 1.8790834, -2088.7062988, -124.905899)">
      <path d="M 450.737 219.401 L 472.803 256.208 L 320.584 256.208 L 298.667 217.555 L 342.101 143.438 L 406.419 143.139 L 428.758 179.812 L 362.823 180.543 L 341.455 219.053 L 450.939 219.402" style="stroke: rgba(0, 0, 0, 0); fill: rgb(46, 136, 208);">
        <title>C-icon</title>
      </path>
      <path d="M 382.137 68.523 L 487.65 67.451 L 509.144 105.357 L 509.147 105.361 L 489.746 143.295 L 551.142 256.208 L 509.146 256.208 L 447.015 143.464 L 447.002 143.463 L 447.009 143.452 L 447.001 143.438 L 447.017 143.438 L 470.277 105.361 L 361.018 105.361 Z" style="stroke: rgba(0, 0, 0, 0); fill: rgb(46, 136, 208);">
        <title>R-icon</title>
      </path>
    </g>
    <g transform="matrix(0.3918892, 0, 0, 0.3911659, -1330.7435303, 260.5422974)">
      <path d="M -392.932 318.802 C -394.344 318.802 -393.34 429.553 -393.155 429.553 C -390.582 450.866 -357.976 442.673 -359.506 429.999 L -359.729 339.749 L -313.601 340.196 C -308.295 341.374 -301.11 351.706 -313.472 357.577 C -313.472 357.35 -337.444 355.235 -341.455 358.245 C -344.809 357.005 -356.688 370.526 -350.369 382.758 L -303.572 438.244 C -285.746 450.712 -268.32 437.522 -275.049 419.972 C -275.659 412.132 -299.612 391.007 -300.231 391.449 C -263.266 388.98 -263.769 310.267 -309.145 307.661 C -318.256 304.871 -383.308 305.978 -383.572 307.215 C -384.471 306.308 -395.053 313.996 -393.155 319.026" style="stroke: rgba(0, 0, 0, 0); fill: rgb(46, 136, 208);">
        <title>R</title>
      </path>
      <path d="M -215.475 407.765 L -191.191 359.199 L -166.908 408.736 L -215.798 408.412 Z M -245.585 441.76 L -138.093 443.152 C -128.867 443.152 -122.614 434.607 -122.551 425.572 L -176.297 315.489 C -179.428 305.918 -199.825 302.107 -205.762 313.222 L -256.918 419.097 C -264.904 426.975 -254.219 443.152 -245.585 441.76 Z" style="stroke: rgba(0, 0, 0, 0); fill: rgb(46, 136, 208);">
        <title>A</title>
      </path>
      <path d="M -78.665 380.234 L -77.875 433.068 C -76.956 443.152 -49.158 446.802 -45.741 434.053 L -44.362 381.022 L -1.187 328.977 C 6.389 314.647 -10.905 298.214 -26.421 307.092 L -61.514 345.536 L -95.224 307.29 C -113.217 302.003 -129.506 313.525 -119.671 330.751 L -78.467 380.825" style="stroke: rgba(0, 0, 0, 0); fill: rgb(46, 136, 208);">
        <title>Y</title>
      </path>
      <path d="M 123.261 339.53 L 26.929 339.911 C 14.057 342.26 9.378 312.928 25.783 304.584 L 122.878 304.584 C 141.634 312.953 136.002 342.543 122.495 339.147 Z M 124.028 443.268 L 27.697 443.65 C 14.824 445.999 10.146 416.666 26.55 408.321 L 123.645 408.321 C 142.402 416.691 136.77 446.281 123.263 442.886 Z M 27.183 392.176 C 14.31 394.525 9.632 365.193 26.036 356.849 L 109.752 357.996 C 130.802 363.69 123.259 394.808 109.751 391.412 Z" style="stroke: rgba(0, 0, 0, 0); fill: rgb(46, 136, 208);">
        <title>E</title>
      </path>
      <path d="M 260.112 337.368 L 163.782 337.751 C 150.908 340.1 146.231 310.766 162.634 302.422 L 259.73 302.422 C 278.487 310.792 272.854 340.381 259.347 336.986 Z M 260.88 441.107 L 164.548 441.488 C 151.676 443.837 146.998 414.505 163.402 406.161 L 260.497 406.161 C 279.254 414.531 273.621 444.12 260.114 440.724 Z M 164.034 390.016 C 151.161 392.365 146.483 363.031 162.887 354.687 L 246.604 355.834 C 267.654 361.528 260.11 392.646 246.603 389.251 Z" style="stroke: rgba(0, 0, 0, 0); fill: rgb(46, 136, 208);">
        <title>E</title>
      </path>
      <path d="M 329.509 340.372 L 396.69 340.044 C 409.004 340.044 410.955 309.902 396.69 308.165 L 325.007 306.781 C 268.675 320.821 284.984 376.806 312.194 390.149 L 364.484 391.624 C 377.017 392.668 375.067 409.041 365.524 408.246 L 300.766 408.938 C 281.757 412.254 284.717 441.062 299.728 441.489 L 373.142 441.489 C 415.123 441.621 420.117 368.682 377.99 359.417 L 328.47 356.849 C 320.119 357.247 318.542 343.663 329.855 340.372" style="stroke: rgba(0, 0, 0, 0); fill: rgb(46, 136, 208);">
        <title>S</title>
      </path>
      <path d="M 497.26 406.022 L 521.544 357.456 L 545.827 406.993 L 496.937 406.669 Z M 467.15 440.017 L 574.642 441.409 C 583.868 441.409 590.121 432.864 590.184 423.829 L 536.438 313.746 C 533.307 304.175 512.91 300.364 506.973 311.479 L 455.817 417.354 C 447.831 425.232 458.516 441.409 467.15 440.017 Z" style="stroke: rgba(0, 0, 0, 0); fill: rgb(46, 136, 208);">
        <title>A</title>
      </path>
      <path d="M 706.809 306.338 C 724.94 316.508 715.827 338.881 706.292 339.427 L 649.986 339.912 C 620.955 352.355 631.445 399.914 649.017 404.132 L 706.809 407.538 C 719.76 406.89 719.76 439.977 706.809 440.628 L 644.647 439.657 C 568.369 415.097 592.625 310.167 647.557 305.365" style="stroke: rgba(0, 0, 0, 0); fill: rgb(46, 136, 208);">
        <title>C</title>
      </path>
    </g>
  </g>
</svg>