<?xml version="1.0" encoding="utf-8"?>
<svg viewBox="0 0 500 500" xmlns="http://www.w3.org/2000/svg">
  <g>
    <text style="font-size: 36; font-family: Roboto; white-space: pre;"/>
    <path d="M 25.063 471.244 L 144.102 471.286 L 143.437 258.751 L 384.704 28.651 L 174.172 28.852 L 109.724 28.909 L 25.422 127.008 L 25 471.276" style="fill: rgb(49, 163, 225);"/>
    <path d="M 24.5 471.275 L 24.922 127.007 L 24.922 126.822 L 25.043 126.682 L 109.345 28.583 L 109.494 28.409 L 109.724 28.409 L 174.172 28.352 L 384.704 28.151 L 385.954 28.15 L 385.049 29.013 L 143.938 258.964 L 144.602 471.284 L 144.604 471.786 L 144.102 471.786 L 25.063 471.744 L 25.063 470.744 L 143.6 470.786 L 142.937 258.753 L 142.936 258.538 L 143.092 258.389 L 383.454 29.152 L 174.172 29.352 L 109.954 29.409 L 25.922 127.194 L 25.5 471.277 Z" style="fill: none;"/>
    <path d="M 24.5 471.275 L 24.922 127.007 L 24.922 126.822 L 25.043 126.682 L 109.345 28.583 L 109.494 28.409 L 109.724 28.409 L 174.172 28.352 L 384.704 28.151 L 385.954 28.15 L 385.049 29.013 L 143.938 258.964 L 144.602 471.284 L 144.604 471.786 L 144.102 471.786 L 25.063 471.744 L 25.063 470.744 L 143.6 470.786 L 142.937 258.753 L 142.936 258.538 L 143.092 258.389 L 383.454 29.152 L 174.172 29.352 L 109.954 29.409 L 25.922 127.194 L 25.5 471.277 Z" style="fill: none;"/>
    <polyline style="fill: rgb(46, 136, 208);" points="144.181 258.093 277.786 204.568 384.556 28.725 144.102 257.882"/>
    <path d="M 143.757 257.52 L 384.211 28.363 L 386.94 25.763 L 384.983 28.984 L 278.213 204.827 L 278.127 204.97 L 277.972 205.032 L 144.367 258.557 L 145.888 256.87 L 277.445 204.166 L 382.172 31.687 Z" style="fill: none;"/>
    <path d="M 143.757 257.52 L 384.211 28.363 L 386.94 25.763 L 384.983 28.984 L 278.213 204.827 L 278.127 204.97 L 277.972 205.032 L 144.367 258.557 L 145.888 256.87 L 277.445 204.166 L 382.172 31.687 Z" style="fill: none;"/>
    <polyline style="fill: rgb(251, 194, 26);" points="384.461 28.672 475 154.079 276.905 471.349 193.704 339.347 384.546 28.672"/>
    <path d="M 475.602 154.059 L 276.907 472.29 L 193.115 339.35 L 384.473 27.835 Z M 384.54 29.636 L 194.293 339.344 L 276.903 470.408 L 474.398 154.099 Z" style="fill: none;"/>
    <path d="M 475.602 154.059 L 276.907 472.29 L 193.115 339.35 L 384.473 27.835 Z M 384.54 29.636 L 194.293 339.344 L 276.903 470.408 L 474.398 154.099 Z" style="fill: none;"/>
    <path d="M 361.966 335.541 L 382.31 368.322 L 276.915 471.286 L 361.866 335.637" style="fill: rgb(208, 88, 36);"/>
    <path d="M 362.391 335.277 L 382.735 368.058 L 382.946 368.399 L 382.659 368.68 L 277.264 471.644 L 274.268 474.571 L 276.491 471.021 L 361.442 335.372 L 361.944 336.454 L 279.562 468.001 L 381.674 368.245 Z" style="fill: none;"/>
    <path d="M 362.391 335.277 L 382.735 368.058 L 382.946 368.399 L 382.659 368.68 L 277.264 471.644 L 274.268 474.571 L 276.491 471.021 L 361.442 335.372 L 361.944 336.454 L 279.562 468.001 L 381.674 368.245 Z" style="fill: none;"/>
    <polyline style="fill: rgb(243, 102, 42);" points="382.885 369.023 452.574 471.292 276.915 471.219 382.226 368.322"/>
    <path d="M 383.298 368.741 L 452.987 471.01 L 453.52 471.792 L 452.574 471.792 L 276.915 471.719 L 275.688 471.718 L 276.566 470.861 L 381.877 367.964 L 382.575 368.68 L 278.142 470.72 L 451.628 470.792 L 382.472 369.305 Z" style="fill: none;"/>
    <path d="M 383.298 368.741 L 452.987 471.01 L 453.52 471.792 L 452.574 471.792 L 276.915 471.719 L 275.688 471.718 L 276.566 470.861 L 381.877 367.964 L 382.575 368.68 L 278.142 470.72 L 451.628 470.792 L 382.472 369.305 Z" style="fill: none;"/>
    <polyline style="fill: rgb(251, 194, 26);" points="25 471.286 144.102 373.002 145.403 473.591 25.398 472.451"/>
    <path d="M 24.682 470.9 L 143.784 372.616 L 144.588 371.952 L 144.602 372.996 L 145.903 473.585 L 145.91 474.096 L 145.398 474.091 L 25.393 472.951 L 25.403 471.951 L 144.896 473.086 L 143.616 374.052 L 25.318 471.672 Z" style="fill: none;"/>
    <path d="M 24.682 470.9 L 143.784 372.616 L 144.588 371.952 L 144.602 372.996 L 145.903 473.585 L 145.91 474.096 L 145.398 474.091 L 25.393 472.951 L 25.403 471.951 L 144.896 473.086 L 143.616 374.052 L 25.318 471.672 Z" style="fill: none;"/>
    <path d="M 144.102 335.541 L 144.102 373.002 L 25 471.286 L 144.102 335.541" style="fill: rgb(46, 136, 208);"/>
    <path d="M 144.602 335.541 L 144.602 373.002 L 144.602 373.238 L 144.42 373.388 L 25.318 471.672 L 24.624 470.956 L 143.726 335.211 L 143.602 336.869 L 29.471 466.948 L 143.602 372.766 Z" style="fill: none;"/>
    <path d="M 144.602 335.541 L 144.602 373.002 L 144.602 373.238 L 144.42 373.388 L 25.318 471.672 L 24.624 470.956 L 143.726 335.211 L 143.602 336.869 L 29.471 466.948 L 143.602 372.766 Z" style="fill: none;"/>
  </g>
</svg>