<?xml version="1.0" encoding="utf-8"?>
<svg viewBox="0 20.939 173.4 156.063" xmlns="http://www.w3.org/2000/svg">
  <g transform="matrix(0.346074, 0, 0, 0.346074, 532.7195435, 36.9591484)">
    <g transform="matrix(1.8825598, 0, 0, 1.8790834, -2088.7062988, -124.905899)">
      <path d="M 450.737 219.401 L 472.803 256.208 L 320.584 256.208 L 298.667 217.555 L 342.101 143.438 L 406.419 143.139 L 428.758 179.812 L 362.823 180.543 L 341.455 219.053 L 450.939 219.402" style="stroke: rgba(0, 0, 0, 0); fill: rgb(255, 1, 79);">
        <title>C-icon</title>
      </path>
      <path d="M 382.137 68.523 L 487.65 67.451 L 509.144 105.357 L 509.147 105.361 L 489.746 143.295 L 551.142 256.208 L 509.146 256.208 L 447.015 143.464 L 447.002 143.463 L 447.009 143.452 L 447.001 143.438 L 447.017 143.438 L 470.277 105.361 L 361.018 105.361 Z" style="stroke: rgba(0, 0, 0, 0); fill: rgb(255, 1, 79);">
        <title>R-icon</title>
      </path>
    </g>
    <g transform="matrix(0.3918892, 0, 0, 0.3911659, -1330.7435303, 260.5422974)"/>
  </g>
</svg>